{"title":"Seven Psychopaths - 2012 (No Cinavia) 1080p AAC","uid":11097509,"size":1613923805,"categoryP":"video","categoryS":"hd___movies","magnet":"?xt=urn:btih:7eb8936fa4820b3afda270e7e8ebdc3f7659e75c&amp;dn=Seven+Psychopaths+-+2012+%28No+Cinavia%29+1080p+AAC&amp;tr=udp%3A%2F%2Ftracker.openbittorrent.com%3A80&amp;tr=udp%3A%2F%2Fopen.demonii.com%3A1337&amp;tr=udp%3A%2F%2Ftracker.coppersurfer.tk%3A6969&amp;tr=udp%3A%2F%2Fexodus.desync.com%3A6969","seeders":0,"leechers":0,"uploader":"AlienMethod","files":-1,"time":1411615713,"description":"1080p MP4/x264\nAAC2.0 (2-Channel Audio)\nCinavia Removed/CinEx HD (ps3-Friendly)\n(Processed from Yify Encode)\n\n&quot;A struggling screenwriter inadvertently becomes entangled in the Los Angeles criminal underworld after his oddball friends kidnap a gangster's beloved Shih Tzu.&quot;\n\nVideo\nID : 1\nFormat : AVC\nFormat/Info : Advanced Video Codec\nFormat profile : &lt;a class=&quot;__cf_email__&quot; href=&quot;/cdn-cgi/l/email-protection&quot; data-cfemail=&quot;baf2d3ddd2faf68e948a&quot;&gt;[email&amp;#160;protected]&lt;/a&gt;&lt;script data-cfhash='f9e31' type=&quot;text/javascript&quot;&gt;\n/* &lt;![CDATA[ */!function(){try{var t=&quot;currentScript&quot;in document?document.currentScript:function(){for(var t=document.getElementsByTagName(&quot;script&quot;),e=t.length;e--;)if(t[e].getAttribute(&quot;data-cfhash&quot;))return t[e]}();if(t&amp;&amp;t.previousSibling){var e,r,n,i,c=t.previousSibling,a=c.getAttribute(&quot;data-cfemail&quot;);if(a){for(e=&quot;&quot;,r=parseInt(a.substr(0,2),16),n=2;a.length-n;n+=2)i=parseInt(a.substr(n,2),16)^r,e+=String.fromCharCode(i);e=document.createTextNode(e),c.parentNode.replaceChild(e,c)}t.parentNode.removeChild(t);}}catch(u){}}()/* ]]&gt; */&lt;/script&gt;\nFormat settings, CABAC : Yes\nFormat settings, ReFrames : 5 frames\nCodec ID : avc1\nCodec ID/Info : Advanced Video Coding\nDuration : 1h 50mn\nBit rate : 1 854 Kbps\nWidth : 1 920 pixels\nHeight : 800 pixels\nDisplay aspect ratio : 2.40:1\nFrame rate mode : Constant\nFrame rate : 23.976 fps\nColor space : YUV\nChroma subsampling : 4:2:0\nBit depth : 8 bits\nScan type : Progressive\nBits/(Pixel*Frame) : 0.050\nStream size : 1.43 GiB (95%)\nWriting library : x264 core 129 r2230 1cffe9f\n\nAudio\nID : 2\nFormat : AAC\nFormat/Info : Advanced Audio Codec\nFormat profile : LC\nCodec ID : 40\nDuration : 1h 48mn\nBit rate mode : Variable\nBit rate : 92.0 Kbps\nMaximum bit rate : 368 Kbps\nChannel(s) : 2 channels\nChannel positions : Front: L R\nSampling rate : 48.0 KHz\nCompression mode : Lossy\nStream size : 71.3 MiB (5%)\n\nm/ AM m/","torrent":{"xt":"urn:btih:7eb8936fa4820b3afda270e7e8ebdc3f7659e75c","amp;dn":"Seven+Psychopaths+-+2012+%28No+Cinavia%29+1080p+AAC","amp;tr":["udp%3A%2F%2Ftracker.openbittorrent.com%3A80","udp%3A%2F%2Fopen.demonii.com%3A1337","udp%3A%2F%2Ftracker.coppersurfer.tk%3A6969","udp%3A%2F%2Fexodus.desync.com%3A6969"],"infoHash":"7eb8936fa4820b3afda270e7e8ebdc3f7659e75c","infoHashBuffer":{"type":"Buffer","data":[126,184,147,111,164,130,11,58,253,162,112,231,232,235,220,63,118,89,231,92]},"announce":[],"urlList":[]}}